<svg width="456" height="456" viewBox="0 0 456 456" fill="none" xmlns="http://www.w3.org/2000/svg">
<path d="M155 200.007V197.189H155.871C156.898 197.189 157.792 197.077 158.551 196.853C159.31 196.629 159.913 196.182 160.36 195.511C160.807 194.795 161.03 193.743 161.03 192.356V171.416C161.03 170.074 160.807 169.09 160.36 168.463C159.913 167.792 159.288 167.367 158.484 167.188C157.725 166.964 156.854 166.853 155.871 166.853H155.67V164.034H166.189L167.06 169.47H167.395C168.288 167.77 169.248 166.495 170.276 165.645C171.303 164.75 172.42 164.146 173.626 163.832C174.831 163.519 176.127 163.363 177.511 163.363C178.941 163.363 180.281 163.564 181.531 163.967C182.827 164.369 183.966 165.018 184.948 165.913C185.931 166.763 186.69 167.949 187.226 169.47H187.762C188.655 167.77 189.638 166.495 190.71 165.645C191.827 164.75 193.01 164.146 194.261 163.832C195.556 163.519 196.896 163.363 198.281 163.363C201.72 163.363 204.4 164.414 206.321 166.517C208.241 168.575 209.202 171.909 209.202 176.517V192.356C209.202 193.743 209.425 194.795 209.872 195.511C210.318 196.182 210.921 196.629 211.681 196.853C212.485 197.077 213.378 197.189 214.36 197.189H214.561V200.007H202.904V176.853C202.904 173.944 202.368 171.685 201.296 170.074C200.269 168.463 198.46 167.658 195.869 167.658C194.038 167.658 192.564 168.128 191.447 169.067C190.375 169.962 189.593 171.17 189.102 172.692C188.655 174.213 188.432 175.868 188.432 177.658V192.356C188.432 193.743 188.655 194.795 189.102 195.511C189.549 196.182 190.152 196.629 190.911 196.853C191.715 197.077 192.608 197.189 193.591 197.189H193.792V200.007H182.134V176.853C182.134 173.944 181.598 171.685 180.526 170.074C179.499 168.463 177.69 167.658 175.099 167.658C173.179 167.658 171.638 168.173 170.477 169.202C169.36 170.186 168.556 171.506 168.065 173.161C167.573 174.817 167.328 176.607 167.328 178.531V192.692C167.328 193.989 167.573 194.974 168.065 195.645C168.601 196.271 169.271 196.696 170.075 196.92C170.923 197.099 171.839 197.189 172.822 197.189H173.023V200.007H155Z" fill="white"/>
<path d="M217.999 200.007V197.189H218.87C219.853 197.189 220.746 197.099 221.55 196.92C222.399 196.696 223.069 196.271 223.56 195.645C224.096 194.974 224.364 193.989 224.364 192.692V171.416C224.364 170.074 224.096 169.09 223.56 168.463C223.069 167.792 222.399 167.367 221.55 167.188C220.746 166.964 219.853 166.853 218.87 166.853H218.669V164.034H230.662V192.356C230.662 193.743 230.908 194.795 231.399 195.511C231.89 196.182 232.56 196.629 233.409 196.853C234.258 197.077 235.173 197.189 236.156 197.189H237.027V200.007H217.999ZM227.245 157.322C226.173 157.322 225.257 157.009 224.498 156.383C223.784 155.756 223.426 154.682 223.426 153.161C223.426 151.595 223.784 150.521 224.498 149.94C225.257 149.313 226.173 149 227.245 149C228.272 149 229.166 149.313 229.925 149.94C230.684 150.521 231.064 151.595 231.064 153.161C231.064 154.682 230.684 155.756 229.925 156.383C229.166 157.009 228.272 157.322 227.245 157.322Z" fill="white"/>
<path d="M239.795 200.007V197.189H240.331C241.358 197.189 242.274 197.077 243.078 196.853C243.926 196.629 244.596 196.182 245.088 195.511C245.579 194.795 245.825 193.743 245.825 192.356V171.416C245.825 170.074 245.579 169.09 245.088 168.463C244.596 167.792 243.949 167.367 243.145 167.188C242.341 166.964 241.447 166.853 240.465 166.853H240.13V164.034H250.983L251.854 169.47H252.189C253.127 167.77 254.11 166.495 255.137 165.645C256.209 164.75 257.371 164.146 258.621 163.832C259.872 163.519 261.212 163.363 262.641 163.363C266.17 163.363 268.917 164.414 270.882 166.517C272.892 168.575 273.897 171.909 273.897 176.517V192.356C273.897 193.743 274.098 194.795 274.5 195.511C274.946 196.182 275.549 196.629 276.309 196.853C277.068 197.077 277.939 197.189 278.922 197.189H279.257V200.007H267.599V176.853C267.599 173.944 267.041 171.685 265.924 170.074C264.852 168.463 262.954 167.658 260.229 167.658C258.219 167.658 256.611 168.173 255.405 169.202C254.244 170.186 253.395 171.506 252.859 173.161C252.368 174.817 252.122 176.607 252.122 178.531V192.692C252.122 193.989 252.368 194.974 252.859 195.645C253.351 196.271 253.998 196.696 254.802 196.92C255.606 197.099 256.5 197.189 257.482 197.189H257.817V200.007H239.795Z" fill="white"/>
<path d="M282.642 200.007V197.189H283.513C284.496 197.189 285.389 197.099 286.193 196.92C287.042 196.696 287.712 196.271 288.203 195.645C288.739 194.974 289.007 193.989 289.007 192.692V171.416C289.007 170.074 288.739 169.09 288.203 168.463C287.712 167.792 287.042 167.367 286.193 167.188C285.389 166.964 284.496 166.853 283.513 166.853H283.312V164.034H295.305V192.356C295.305 193.743 295.551 194.795 296.042 195.511C296.533 196.182 297.203 196.629 298.052 196.853C298.9 197.077 299.816 197.189 300.799 197.189H301.67V200.007H282.642ZM291.888 157.322C290.816 157.322 289.9 157.009 289.141 156.383C288.426 155.756 288.069 154.682 288.069 153.161C288.069 151.595 288.426 150.521 289.141 149.94C289.9 149.313 290.816 149 291.888 149C292.915 149 293.809 149.313 294.568 149.94C295.327 150.521 295.707 151.595 295.707 153.161C295.707 154.682 295.327 155.756 294.568 156.383C293.809 157.009 292.915 157.322 291.888 157.322Z" fill="white"/>
<path d="M167.194 291.564C164.96 291.564 163.017 291.295 161.365 290.758C159.712 290.221 158.417 289.438 157.479 288.409C156.586 287.335 156.139 286.015 156.139 284.449C156.139 283.241 156.385 282.302 156.876 281.631C157.367 280.959 157.926 280.49 158.551 280.221C159.221 279.953 159.824 279.818 160.36 279.818C160.36 281.384 160.583 282.816 161.03 284.114C161.477 285.411 162.236 286.44 163.308 287.201C164.38 287.962 165.809 288.342 167.596 288.342C169.963 288.342 171.772 287.783 173.023 286.664C174.318 285.501 174.965 284.024 174.965 282.235C174.965 281.116 174.72 280.199 174.229 279.483C173.782 278.767 172.956 278.073 171.75 277.402C170.588 276.686 168.913 275.859 166.725 274.919C164.447 273.89 162.548 272.906 161.03 271.966C159.556 270.982 158.439 269.863 157.68 268.61C156.965 267.313 156.608 265.702 156.608 263.778C156.608 260.735 157.747 258.409 160.025 256.798C162.347 255.142 165.407 254.315 169.204 254.315C171.348 254.315 173.134 254.606 174.564 255.187C176.037 255.724 177.132 256.462 177.846 257.402C178.606 258.342 178.985 259.371 178.985 260.489C178.985 261.697 178.561 262.682 177.712 263.442C176.908 264.158 175.725 264.516 174.162 264.516C174.162 262.279 173.693 260.534 172.755 259.281C171.817 258.028 170.365 257.402 168.4 257.402C166.881 257.402 165.653 257.626 164.715 258.073C163.777 258.521 163.084 259.147 162.638 259.952C162.236 260.758 162.035 261.697 162.035 262.771C162.035 263.89 162.303 264.829 162.839 265.59C163.419 266.351 164.313 267.067 165.519 267.738C166.769 268.364 168.377 269.08 170.343 269.885C172.71 270.87 174.63 271.854 176.104 272.838C177.578 273.823 178.65 274.964 179.32 276.261C180.035 277.559 180.392 279.147 180.392 281.026C180.392 284.516 179.186 287.156 176.774 288.946C174.363 290.691 171.169 291.564 167.194 291.564Z" fill="white"/>
<path d="M184.558 290.892V288.074H185.094C186.121 288.074 187.037 287.962 187.841 287.738C188.689 287.514 189.359 287.067 189.851 286.396C190.342 285.68 190.588 284.628 190.588 283.241V247.268C190.588 245.925 190.32 244.941 189.784 244.315C189.292 243.643 188.622 243.218 187.774 243.039C186.97 242.816 186.076 242.704 185.094 242.704H184.558V239.885H196.885V254.65C196.885 255.456 196.863 256.306 196.818 257.201C196.774 258.051 196.729 258.789 196.684 259.415C196.64 260.042 196.617 260.355 196.617 260.355H196.952C197.622 259.013 198.426 257.894 199.364 256.999C200.347 256.06 201.441 255.366 202.647 254.919C203.898 254.471 205.283 254.248 206.801 254.248C210.642 254.248 213.568 255.299 215.578 257.402C217.633 259.46 218.66 262.794 218.66 267.402V283.241C218.66 284.628 218.883 285.68 219.33 286.396C219.777 287.067 220.38 287.514 221.139 287.738C221.943 287.962 222.836 288.074 223.819 288.074H224.02V290.892H212.362V267.738C212.362 264.829 211.804 262.57 210.687 260.959C209.615 259.348 207.717 258.543 204.992 258.543C203.161 258.543 201.642 258.99 200.436 259.885C199.23 260.78 198.337 262.055 197.756 263.711C197.176 265.322 196.885 267.223 196.885 269.416V283.577C196.885 284.874 197.131 285.859 197.622 286.53C198.158 287.156 198.828 287.581 199.632 287.805C200.481 287.984 201.397 288.074 202.379 288.074H202.58V290.892H184.558Z" fill="white"/>
<path d="M245.109 291.564C240.285 291.564 236.488 290.02 233.719 286.933C230.95 283.845 229.565 279.147 229.565 272.838C229.565 266.574 230.883 261.921 233.518 258.879C236.198 255.791 240.128 254.248 245.309 254.248C250.133 254.248 253.93 255.791 256.699 258.879C259.468 261.921 260.853 266.574 260.853 272.838C260.853 279.147 259.513 283.845 256.833 286.933C254.198 290.02 250.29 291.564 245.109 291.564ZM245.243 288.074C247.476 288.074 249.262 287.514 250.602 286.396C251.942 285.232 252.903 283.51 253.483 281.228C254.064 278.946 254.354 276.149 254.354 272.838C254.354 269.483 254.042 266.709 253.416 264.516C252.836 262.279 251.875 260.601 250.535 259.483C249.195 258.364 247.409 257.805 245.175 257.805C242.942 257.805 241.156 258.364 239.816 259.483C238.476 260.601 237.515 262.279 236.935 264.516C236.354 266.709 236.064 269.483 236.064 272.838C236.064 276.149 236.354 278.946 236.935 281.228C237.56 283.51 238.543 285.232 239.883 286.396C241.223 287.514 243.009 288.074 245.243 288.074Z" fill="white"/>
<path d="M265.754 307V304.181H266.29C267.317 304.181 268.233 304.069 269.037 303.846C269.885 303.622 270.555 303.152 271.047 302.436C271.538 301.765 271.784 300.736 271.784 299.349V262.301C271.784 260.959 271.516 259.975 270.98 259.348C270.488 258.677 269.818 258.252 268.97 258.073C268.166 257.849 267.273 257.738 266.29 257.738H265.419V254.919H277.144L277.814 260.959H278.082C279.109 258.901 280.427 257.268 282.035 256.06C283.642 254.852 285.742 254.248 288.332 254.248C292.754 254.248 296.126 255.746 298.449 258.744C300.816 261.697 302 266.395 302 272.838C302 279.326 300.816 284.069 298.449 287.067C296.126 290.065 292.754 291.564 288.332 291.564C285.742 291.564 283.62 291.027 281.968 289.953C280.36 288.834 279.064 287.402 278.082 285.657H277.814C277.903 286.508 277.948 287.425 277.948 288.409C277.992 289.349 278.015 290.244 278.015 291.094C278.059 291.944 278.082 292.66 278.082 293.241V299.684C278.082 300.982 278.327 301.944 278.819 302.57C279.355 303.242 280.025 303.667 280.829 303.846C281.677 304.069 282.593 304.181 283.575 304.181H283.776V307H265.754ZM287.26 287.268C289.226 287.268 290.811 286.709 292.017 285.59C293.223 284.472 294.094 282.839 294.63 280.691C295.211 278.543 295.501 275.903 295.501 272.771C295.501 269.595 295.211 266.955 294.63 264.852C294.094 262.749 293.223 261.183 292.017 260.154C290.811 259.08 289.203 258.543 287.193 258.543C284.871 258.543 283.039 259.057 281.7 260.087C280.404 261.116 279.466 262.704 278.886 264.852C278.35 266.955 278.082 269.617 278.082 272.838C278.082 275.926 278.35 278.543 278.886 280.691C279.466 282.839 280.427 284.472 281.767 285.59C283.106 286.709 284.938 287.268 287.26 287.268Z" fill="white"/>
</svg>
