<svg width="456" height="456" viewBox="0 0 456 456" fill="none" xmlns="http://www.w3.org/2000/svg">
<rect width="456" height="456" fill="#0A4923"/>
<path d="M300.776 300.76C300.136 299.565 299.731 298.243 299.56 296.792C299.389 295.299 299.304 293.251 299.304 290.648C299.304 288.173 298.963 286.019 298.28 284.184C297.597 282.349 296.189 281.432 294.056 281.432C293.245 281.432 292.435 281.688 291.624 282.2C290.856 282.669 290.28 283.267 289.896 283.992C289.299 285.144 288.893 286.403 288.68 287.768C288.467 289.091 288.36 290.627 288.36 292.376C288.36 293.485 288.424 294.616 288.552 295.768C288.552 296.109 288.573 296.664 288.616 297.432C288.701 298.157 288.744 298.819 288.744 299.416C288.744 301.976 287.848 303.256 286.056 303.256C283.709 303.256 282.472 302.019 282.344 299.544C282.344 297.795 282.365 296.856 282.408 296.728V293.976C282.408 292.44 282.344 290.947 282.216 289.496C282.088 288.045 281.939 286.957 281.768 286.232C281.384 284.824 280.872 283.736 280.232 282.968C279.635 282.2 278.675 281.816 277.352 281.816C275.475 281.816 273.96 282.627 272.808 284.248C271.997 285.528 271.464 287.085 271.208 288.92C270.952 291.267 270.76 293.123 270.632 294.488C270.547 295.811 270.504 297.347 270.504 299.096C270.504 300.333 270.291 301.336 269.864 302.104C269.48 302.872 268.733 303.256 267.624 303.256C266.813 303.256 265.96 303.043 265.064 302.616C264.211 302.147 263.784 301.528 263.784 300.76C263.784 299.949 263.869 299.139 264.04 298.328C264.424 295.896 264.616 291.544 264.616 285.272C264.616 284.248 264.36 283.267 263.848 282.328C263.379 281.347 262.803 280.856 262.12 280.856C261.949 280.856 261.629 280.941 261.16 281.112C260.733 281.283 260.413 281.368 260.2 281.368C259.645 281.368 259.133 281.112 258.664 280.6C258.237 280.088 258.024 279.661 258.024 279.32C258.024 278.253 258.536 277.357 259.56 276.632C260.627 275.864 261.736 275.48 262.888 275.48C264.467 275.48 265.811 275.971 266.92 276.952C268.029 277.933 268.883 279.299 269.48 281.048C270.461 279.341 271.784 277.976 273.448 276.952C275.112 275.885 276.968 275.352 279.016 275.352C280.296 275.352 281.32 275.523 282.088 275.864C282.899 276.163 283.56 276.611 284.072 277.208C284.584 277.763 285.245 278.616 286.056 279.768C287.123 278.403 288.488 277.336 290.152 276.568C291.859 275.8 293.608 275.416 295.4 275.416C297.533 275.416 299.453 276.291 301.16 278.04C302.867 279.747 304.019 281.731 304.616 283.992C304.915 285.144 305.064 287.363 305.064 290.648L305.32 294.36C305.533 296.579 306.259 297.923 307.496 298.392C308.947 298.819 309.672 299.267 309.672 299.736C309.672 300.76 309.416 301.507 308.904 301.976C308.52 302.232 307.987 302.509 307.304 302.808C306.621 303.107 306.088 303.256 305.704 303.256C303.4 303.256 301.757 302.424 300.776 300.76ZM317.469 261.912C318.962 262.04 320.263 262.445 321.373 263.128C322.482 263.768 323.037 264.749 323.037 266.072C323.037 267.053 322.567 267.843 321.629 268.44C320.733 268.995 319.645 269.272 318.365 269.272C317.127 269.272 316.274 268.952 315.805 268.312C315.335 267.672 315.101 267.011 315.101 266.328C315.101 265.048 315.229 263.981 315.485 263.128C315.783 262.275 316.445 261.869 317.469 261.912ZM322.589 290.264V292.12C322.589 293.784 322.631 295.363 322.717 296.856C322.845 298.307 322.994 299.779 323.165 301.272C323.122 301.699 322.802 302.147 322.205 302.616C321.607 303.043 321.074 303.256 320.605 303.256C319.794 303.256 318.962 303.107 318.109 302.808C317.298 302.467 316.807 302.061 316.637 301.592C316.381 300.227 316.253 299.011 316.253 297.944C316.253 294.445 316.146 290.52 315.933 286.168C315.762 282.328 315.677 279.64 315.677 278.104C315.677 277.336 316.061 276.675 316.829 276.12C317.597 275.565 318.407 275.288 319.26 275.288C320.498 275.288 321.351 275.565 321.821 276.12C322.333 276.675 322.589 277.549 322.589 278.744V290.264ZM330.068 280.472C329.726 280.216 329.449 279.96 329.236 279.704C329.022 279.405 328.916 278.893 328.916 278.168C328.916 277.357 329.193 276.739 329.748 276.312C330.345 275.843 331.028 275.608 331.796 275.608C333.289 275.608 334.569 275.992 335.635 276.76C336.745 277.528 337.556 278.595 338.068 279.96C339.006 278.211 340.201 277.016 341.652 276.376C343.102 275.693 345.108 275.352 347.668 275.352C348.692 275.352 349.737 275.672 350.804 276.312C351.913 276.909 352.916 277.656 353.812 278.552C354.537 279.491 355.156 280.664 355.668 282.072C356.18 283.437 356.436 284.675 356.436 285.784C356.436 286.424 356.393 287.469 356.308 288.92C356.222 290.456 356.18 291.672 356.18 292.568C356.18 295.555 356.756 297.389 357.908 298.072C358.078 298.157 358.398 298.264 358.868 298.392C359.337 298.52 359.678 298.648 359.892 298.776C360.148 298.904 360.276 299.096 360.276 299.352C360.318 300.376 359.934 301.229 359.124 301.912C358.356 302.552 357.417 302.872 356.308 302.872C354.644 302.872 353.342 302.424 352.404 301.528C351.465 300.632 350.804 299.267 350.42 297.432C350.206 296.749 350.1 295.747 350.1 294.424C350.1 293.699 350.142 292.525 350.228 290.904C350.356 289.624 350.42 288.259 350.42 286.808C350.42 285.315 349.993 284.013 349.14 282.904C348.286 281.752 347.113 281.176 345.62 281.176C344.724 281.176 343.785 281.453 342.804 282.008C341.822 282.52 341.14 283.16 340.756 283.928C340.116 285.251 339.689 286.595 339.476 287.96C338.964 290.605 338.708 293.144 338.708 295.576C338.708 296.173 338.75 297.325 338.836 299.032C338.836 299.16 338.836 299.48 338.836 299.992C338.836 300.461 338.772 300.909 338.644 301.336C338.558 301.763 338.388 302.147 338.132 302.488C337.961 302.659 337.641 302.829 337.172 303C336.702 303.171 336.297 303.256 335.956 303.256C335.358 303.256 334.612 303 333.716 302.488C332.82 301.976 332.286 301.4 332.116 300.76L332.052 299.864C332.052 299.523 332.094 299.011 332.18 298.328C332.692 295.341 332.948 292.739 332.948 290.52C332.948 289.539 332.926 288.792 332.884 288.28L332.82 285.336C332.82 284.44 332.564 283.587 332.052 282.776C331.54 281.923 330.878 281.155 330.068 280.472ZM367.969 261.912C369.462 262.04 370.763 262.445 371.873 263.128C372.982 263.768 373.537 264.749 373.537 266.072C373.537 267.053 373.067 267.843 372.129 268.44C371.233 268.995 370.145 269.272 368.865 269.272C367.627 269.272 366.774 268.952 366.305 268.312C365.835 267.672 365.601 267.011 365.601 266.328C365.601 265.048 365.729 263.981 365.985 263.128C366.283 262.275 366.945 261.869 367.969 261.912ZM373.089 290.264V292.12C373.089 293.784 373.131 295.363 373.217 296.856C373.345 298.307 373.494 299.779 373.665 301.272C373.665 301.784 373.366 302.253 372.769 302.68C372.171 303.064 371.617 303.256 371.105 303.256C370.294 303.256 369.462 303.107 368.609 302.808C367.798 302.467 367.307 302.061 367.137 301.592C366.881 300.227 366.753 299.011 366.753 297.944C366.753 294.445 366.646 290.52 366.433 286.168C366.262 282.328 366.177 279.64 366.177 278.104C366.177 277.336 366.561 276.675 367.329 276.12C368.097 275.565 368.907 275.288 369.76 275.288C370.998 275.288 371.851 275.565 372.321 276.12C372.833 276.675 373.089 277.549 373.089 278.744V290.264ZM278.312 365.6C278.653 365.813 279.315 366.219 280.296 366.816C281.32 367.371 282.003 368.032 282.344 368.8C282.685 369.568 282.856 370.635 282.856 372C282.856 373.536 282.408 374.901 281.512 376.096C280.616 377.248 279.464 378.144 278.056 378.784C277.032 379.253 275.773 379.616 274.28 379.872C272.829 380.128 271.677 380.256 270.824 380.256C269.971 380.256 268.861 380.128 267.496 379.872C266.173 379.616 265.256 379.381 264.744 379.168C263.421 378.4 262.269 377.461 261.288 376.352C260.349 375.243 259.88 374.112 259.88 372.96C259.88 372.107 260.157 371.445 260.712 370.976C261.267 370.464 261.992 370.208 262.888 370.208C263.315 370.208 263.763 370.379 264.232 370.72C264.701 371.019 265.021 371.339 265.192 371.68C265.661 372.789 266.451 373.621 267.56 374.176C268.669 374.731 269.8 375.008 270.952 375.008C272.445 375.008 273.832 374.773 275.112 374.304C276.392 373.792 277.032 373.109 277.032 372.256C277.032 371.872 276.925 371.573 276.712 371.36C276.541 371.104 276.285 370.848 275.944 370.592C275.347 370.165 274.451 369.824 273.256 369.568C272.061 369.269 271.293 369.077 270.952 368.992C269.203 368.608 267.496 368.032 265.832 367.264C264.168 366.453 262.845 365.493 261.864 364.384C260.883 363.275 260.392 361.845 260.392 360.096C260.392 358.944 260.819 357.749 261.672 356.512C262.525 355.232 263.485 354.336 264.552 353.824C265.32 353.525 266.6 353.205 268.392 352.864C270.227 352.523 271.464 352.352 272.104 352.352C273.085 352.352 274.152 352.459 275.304 352.672C276.456 352.843 277.331 353.141 277.928 353.568C279.08 354.251 280.019 354.976 280.744 355.744C281.469 356.469 281.832 357.301 281.832 358.24C281.832 358.709 281.725 359.221 281.512 359.776C281.299 360.288 281.043 360.608 280.744 360.736C280.104 361.035 279.357 361.184 278.504 361.184C278.12 361.184 277.8 361.077 277.544 360.864C277.331 360.651 277.032 360.309 276.648 359.84C276.179 359.115 275.731 358.688 275.304 358.56C274.792 358.432 274.045 358.283 273.064 358.112C272.083 357.899 271.421 357.792 271.08 357.792C270.099 357.792 269.075 358.069 268.008 358.624C266.984 359.179 266.472 359.819 266.472 360.544C266.472 360.928 266.621 361.227 266.92 361.44C267.261 361.653 267.603 361.845 267.944 362.016C268.328 362.187 268.584 362.293 268.712 362.336C269.608 362.763 270.589 363.125 271.656 363.424C272.765 363.723 273.448 363.915 273.704 364C276.008 364.555 277.544 365.088 278.312 365.6ZM315.004 380.192C311.804 380.192 309.649 378.955 308.54 376.48C307.985 375.243 307.623 373.643 307.452 371.68C307.281 369.675 307.196 367.328 307.196 364.64V362.656C307.196 359.584 306.172 358.048 304.124 358.048C302.929 358.048 301.735 358.667 300.54 359.904C299.345 361.099 298.343 362.699 297.532 364.704C296.764 366.667 296.38 368.715 296.38 370.848C296.38 372.256 296.444 373.536 296.572 374.688C296.657 376.139 296.7 377.248 296.7 378.016C296.7 379.467 295.697 380.192 293.692 380.192C292.711 380.192 291.836 379.979 291.068 379.552C290.343 379.125 289.98 378.571 289.98 377.888C290.151 375.712 290.236 373.024 290.236 369.824L290.172 361.376C290.172 360.011 290.065 354.955 289.852 346.208L289.66 340.32C289.66 339.381 290.087 338.571 290.94 337.888C291.793 337.163 292.753 336.8 293.82 336.8C294.759 336.8 295.441 337.013 295.868 337.44C296.295 337.867 296.508 338.528 296.508 339.424C296.508 340.533 296.487 341.835 296.444 343.328C296.401 344.779 296.359 345.888 296.316 346.656C296.188 348.832 296.124 351.008 296.124 353.184C296.124 355.317 296.081 357.003 295.996 358.24C297.276 356.363 298.727 354.976 300.348 354.08C302.012 353.141 303.953 352.672 306.172 352.672C307.793 352.672 309.287 353.397 310.652 354.848C312.06 356.256 312.913 357.877 313.212 359.712C313.297 360.651 313.34 362.037 313.34 363.872L313.276 368.544C313.276 369.269 313.319 370.4 313.404 371.936C313.447 372.661 313.681 373.429 314.108 374.24C314.577 375.051 315.111 375.648 315.708 376.032C316.263 376.373 316.625 376.715 316.796 377.056C316.967 377.397 317.052 377.781 317.052 378.208C317.052 378.635 316.86 379.083 316.476 379.552C316.092 379.979 315.601 380.192 315.004 380.192ZM346.924 359.456C347.265 360.053 347.542 360.928 347.756 362.08C347.969 363.189 348.076 364.192 348.076 365.088C348.076 366.752 347.713 369.12 346.988 372.192C344.044 377.568 339.692 380.256 333.932 380.256C331.798 380.256 329.622 379.552 327.404 378.144C325.185 376.736 323.649 375.115 322.796 373.28C321.644 369.611 321.068 367.285 321.068 366.304C321.068 364.597 321.43 362.784 322.156 360.864C322.924 358.944 323.884 357.28 325.036 355.872C325.761 354.891 327.062 354.059 328.94 353.376C330.817 352.651 332.524 352.288 334.06 352.288C337.046 352.288 339.585 352.864 341.676 354.016C343.766 355.125 345.516 356.939 346.924 359.456ZM341.356 369.76C341.569 369.205 341.676 367.776 341.676 365.472C341.676 364.235 341.441 363.019 340.972 361.824C340.545 360.629 339.905 359.605 339.052 358.752C338.966 358.667 338.732 358.539 338.348 358.368C337.964 358.155 337.43 357.963 336.748 357.792C336.108 357.579 335.361 357.472 334.508 357.472C332.118 357.472 330.369 358.432 329.26 360.352C328.15 362.272 327.595 364.448 327.595 366.88C327.595 367.307 327.702 368.117 327.916 369.312C328.172 370.507 328.385 371.253 328.556 371.552C328.684 371.851 329.004 372.277 329.516 372.832C330.07 373.344 330.732 373.813 331.5 374.24C332.31 374.624 333.142 374.816 333.996 374.816C335.916 374.816 337.452 374.368 338.604 373.472C339.756 372.533 340.673 371.296 341.356 369.76ZM355.802 357.728C355.418 357.728 355.055 357.771 354.714 357.856C354.372 357.899 354.031 357.92 353.69 357.92C353.22 357.92 352.772 357.707 352.346 357.28C351.962 356.853 351.77 356.469 351.77 356.128C351.77 355.019 352.324 354.165 353.434 353.568C354.543 352.928 355.674 352.608 356.826 352.608C357.807 352.608 358.81 352.949 359.834 353.632C360.9 354.272 361.69 355.104 362.202 356.128C363.311 354.805 364.676 353.845 366.298 353.248C367.919 352.651 369.604 352.352 371.354 352.352C373.316 352.352 375.13 352.971 376.794 354.208C378.5 355.445 379.844 357.024 380.826 358.944C381.807 360.821 382.298 362.699 382.298 364.576C382.298 366.411 382.106 368.053 381.722 369.504C381.338 370.912 380.655 372.341 379.674 373.792C378.564 375.328 377.071 376.587 375.194 377.568C373.359 378.549 371.162 379.04 368.602 379.04C367.919 379.04 367.087 378.869 366.106 378.528C365.124 378.144 364.314 377.739 363.674 377.312C363.375 380.213 363.226 382.731 363.226 384.864C363.226 386.144 363.29 387.36 363.418 388.512C363.503 389.877 363.546 390.859 363.546 391.456C363.546 392.395 363.226 393.077 362.586 393.504C361.946 393.973 361.242 394.208 360.474 394.208C358.938 394.208 357.914 393.781 357.402 392.928C356.932 392.117 356.698 390.944 356.698 389.408C356.868 385.739 357.082 382.347 357.338 379.232C357.594 375.392 357.722 369.461 357.722 361.44C357.722 360.672 357.572 359.861 357.274 359.008C356.975 358.155 356.484 357.728 355.802 357.728ZM363.93 370.976C364.143 371.787 364.74 372.469 365.722 373.024C366.746 373.536 367.663 373.792 368.474 373.792C370.906 373.792 372.719 373.131 373.914 371.808C374.81 370.869 375.386 369.952 375.642 369.056C375.94 368.16 376.09 366.731 376.09 364.768C376.09 363.232 375.791 361.952 375.194 360.928C374.596 359.861 373.871 359.093 373.018 358.624C372.164 358.112 371.354 357.856 370.586 357.856C368.836 357.856 367.407 358.389 366.298 359.456C365.231 360.48 364.548 361.888 364.25 363.68C364.036 365.088 363.93 367.52 363.93 370.976Z" fill="#F7F5F5"/>
</svg>
